<svg width="162" height="51" viewBox="0 0 162 51" fill="none" xmlns="http://www.w3.org/2000/svg">
<path d="M85.1352 13.4659C85.1352 15.2655 83.6735 16.7145 81.8596 16.7145C80.0456 16.7145 78.585 15.2655 78.585 13.4659C78.585 11.6664 79.9958 10.2173 81.8596 10.2173C83.7249 10.2673 85.1352 11.7168 85.1352 13.4659V13.4659ZM71.6322 20.0141V20.814C71.6322 20.814 70.0709 18.8137 66.7455 18.8137C61.2543 18.8137 56.971 22.9626 56.971 28.7103C56.971 34.4086 61.2039 38.6069 66.7455 38.6069C70.1212 38.6069 71.6322 36.5576 71.6322 36.5576V37.407C71.6322 37.807 71.9352 38.106 72.3378 38.106H76.4182V19.312H72.3378C71.9352 19.3135 71.6322 19.664 71.6322 20.0141V20.0141ZM71.6322 32.0592C70.8772 33.1592 69.3652 34.109 67.5518 34.109C64.3275 34.109 61.8582 32.1097 61.8582 28.7103C61.8582 25.3114 64.3275 23.3121 67.5518 23.3121C69.3154 23.3121 70.9275 24.3117 71.6322 25.3613V32.0592ZM79.4416 19.3135H84.278V38.1075H79.4416V19.3135V19.3135ZM151.69 18.8132C148.365 18.8132 146.803 20.8135 146.803 20.8135V10.2673H141.966V38.1075H146.048C146.451 38.1075 146.752 37.7575 146.752 37.4075V36.5581C146.752 36.5581 148.315 38.6074 151.639 38.6074C157.131 38.6074 161.413 34.41 161.413 28.7118C161.413 23.0135 157.131 18.8132 151.69 18.8132V18.8132ZM150.884 34.0585C149.019 34.0585 147.559 33.1098 146.803 32.0093V25.3114C147.559 24.3117 149.171 23.2622 150.884 23.2622C154.108 23.2622 156.577 25.2614 156.577 28.6603C156.577 32.0592 154.109 34.0585 150.884 34.0585ZM139.448 26.9617V38.1575H134.61V27.5109C134.61 24.4126 133.603 23.1623 130.884 23.1623C129.423 23.1623 127.911 23.9123 126.952 25.0123V38.108H122.117V19.314H125.945C126.348 19.314 126.65 19.664 126.65 20.0141V20.814C128.061 19.3639 129.925 18.8137 131.789 18.8137C133.905 18.8137 135.669 19.4144 137.08 20.6138C138.792 22.0134 139.448 23.8124 139.448 26.9617V26.9617ZM110.376 18.8132C107.052 18.8132 105.489 20.8135 105.489 20.8135V10.2673H100.653V38.1075H104.733C105.137 38.1075 105.439 37.7575 105.439 37.4075V36.5581C105.439 36.5581 107.001 38.6074 110.326 38.6074C115.818 38.6074 120.1 34.41 120.1 28.7118C120.151 23.013 115.868 18.8132 110.376 18.8132V18.8132ZM109.57 34.0585C107.706 34.0585 106.245 33.1098 105.489 32.0093V25.3114C106.245 24.3117 107.857 23.2622 109.57 23.2622C112.795 23.2622 115.263 25.2614 115.263 28.6603C115.263 32.0592 112.795 34.0585 109.57 34.0585ZM96.4709 18.8132C97.9315 18.8132 98.6875 19.0638 98.6875 19.0638V23.5118C98.6875 23.5118 94.657 22.1621 92.1384 25.0118V38.157H87.301V19.3135H91.3824C91.7855 19.3135 92.087 19.6635 92.087 20.0136V20.8135C92.995 19.7634 94.9599 18.8132 96.4709 18.8132V18.8132ZM46.2403 36.4079C45.9886 35.8082 45.7365 35.1585 45.4848 34.6083C45.0811 33.709 44.678 32.8587 44.3262 32.0592L44.2758 32.0093C40.7989 24.5115 37.0713 16.9148 33.1409 9.41793L32.9899 9.11732C32.5765 8.33961 32.1737 7.55644 31.7815 6.76801C31.2771 5.86773 30.7738 4.91901 29.9675 4.01873C28.3554 2.01944 26.0376 0.919434 23.5693 0.919434C21.0497 0.919434 18.7828 2.01945 17.1208 3.91838C16.3648 4.81766 15.8102 5.76738 15.3069 6.66766C14.9137 7.45559 14.5108 8.23875 14.0984 9.01696L13.9469 9.31755C10.0673 16.8144 6.28892 24.4116 2.81251 31.9089L2.76168 32.0083C2.40936 32.8092 2.00569 33.6586 1.60253 34.5573C1.35087 35.1076 1.09922 35.7073 0.847557 36.3569C0.192237 38.2059 -0.00960317 39.9555 0.243062 41.7556C0.797215 45.5045 3.31582 48.6523 6.79274 50.0529C8.10287 50.6031 9.46334 50.8528 10.8736 50.8528C11.2768 50.8528 11.7801 50.8028 12.1838 50.7524C13.8468 50.5527 15.5595 50.0034 17.2225 49.0537C19.2881 47.9038 21.2531 46.255 23.4697 43.8557C25.6863 46.255 27.7016 47.9038 29.7169 49.0537C31.3803 50.0034 33.0926 50.5527 34.7551 50.7524C35.1582 50.8033 35.6625 50.8528 36.0657 50.8528C37.4765 50.8528 38.8868 50.6031 40.1461 50.0529C43.6734 48.6523 46.1416 45.4546 46.6963 41.7556C47.0964 40.0065 46.8951 38.2578 46.2403 36.4079V36.4079ZM23.5185 39.0068C20.7976 35.6079 19.0339 32.4093 18.43 29.7109C18.1783 28.561 18.1275 27.5613 18.279 26.6616C18.3791 25.8616 18.6821 25.1616 19.0853 24.5619C20.0426 23.2132 21.6547 22.3629 23.519 22.3629C25.3838 22.3629 27.0463 23.1628 27.9532 24.5619C28.3564 25.1616 28.6584 25.8621 28.7601 26.6616C28.9105 27.5618 28.8602 28.6109 28.6086 29.7109C28.0021 32.3593 26.2384 35.5585 23.5185 39.0068ZM43.62 41.3561C43.2677 43.9551 41.5041 46.2051 39.0358 47.2047C37.8268 47.704 36.5162 47.8543 35.207 47.704C33.9477 47.5537 32.6874 47.1538 31.3783 46.4048C29.5644 45.4041 27.7509 43.8557 25.6345 41.5559C28.9594 37.5078 30.9747 33.8084 31.7306 30.5103C32.0835 28.9604 32.1343 27.5613 31.9823 26.2611C31.7815 25.0118 31.3275 23.8618 30.6223 22.8622C29.0595 20.6122 26.4393 19.3135 23.518 19.3135C20.5967 19.3135 17.9765 20.6632 16.4147 22.8622C15.7095 23.8618 15.2555 25.0118 15.0542 26.2611C14.8529 27.5613 14.9027 29.0104 15.3059 30.5103C16.0613 33.8084 18.127 37.5573 21.4016 41.6058C19.3359 43.9052 17.4716 45.4551 15.6577 46.4547C14.3475 47.2047 13.0887 47.6047 11.8294 47.754C10.4695 47.9043 9.15884 47.704 8.00021 47.2546C5.53194 46.255 3.76831 44.005 3.41599 41.4061C3.26499 40.1568 3.36515 38.9074 3.86948 37.5078C4.01997 37.0075 4.27263 36.5082 4.52429 35.9085C4.87712 35.1086 5.27927 34.2583 5.68293 33.4089L5.73377 33.3095C9.20968 25.8616 12.9378 18.2644 16.8173 10.8675L16.9683 10.5669C17.372 9.81788 17.7751 9.01796 18.1778 8.26798C18.581 7.46806 19.0339 6.71808 19.5886 6.06796C20.6466 4.86958 22.0569 4.21896 23.6192 4.21896C25.1815 4.21896 26.5918 4.86958 27.6497 6.06796C28.2044 6.71958 28.6574 7.46956 29.0605 8.26798C29.4642 9.01796 29.8674 9.81788 30.2695 10.5669L30.421 10.8675C34.2414 18.2952 37.92 25.7938 41.4547 33.3595V33.4094C41.8584 34.2103 42.2107 35.1091 42.6139 35.91C42.8655 36.5087 43.1177 37.008 43.2687 37.5084C43.6708 38.8066 43.8218 40.0569 43.62 41.3561V41.3561Z" fill="#CFCFDE"/>
</svg>
