<svg width="154" height="47" viewBox="0 0 154 47" fill="none" xmlns="http://www.w3.org/2000/svg">
<path fill-rule="evenodd" clip-rule="evenodd" d="M95.4829 36.4892C86.5883 43.0431 73.6507 46.5349 62.492 46.5349C46.859 46.5349 32.8432 40.7868 22.1697 31.2245C21.3611 30.4725 22.0619 29.4518 23.0861 30.0427C34.5682 36.7041 48.7457 40.6794 63.4084 40.6794C73.2733 40.6794 84.1625 38.638 94.1892 34.3941C95.6986 33.8031 96.9384 35.4148 95.4829 36.4892Z" fill="#CFCFDE"/>
<path fill-rule="evenodd" clip-rule="evenodd" d="M99.2031 32.2454C98.071 30.795 91.6561 31.5471 88.7991 31.9231C87.9366 32.0306 87.7748 31.2785 88.5834 30.7413C93.7046 27.142 102.06 28.2164 103.03 29.3982C104.001 30.5801 102.761 38.9605 97.9632 42.9358C97.2085 43.5268 96.5077 43.2044 96.8312 42.3986C97.9093 39.7126 100.335 33.7496 99.2031 32.2454Z" fill="#CFCFDE"/>
<path fill-rule="evenodd" clip-rule="evenodd" d="M88.9603 5.49261V2.00077C88.9603 1.46356 89.3377 1.14123 89.8228 1.14123H105.456C105.941 1.14123 106.372 1.51728 106.372 2.00077V4.9554C106.372 5.43889 105.941 6.08354 105.186 7.15795L97.1003 18.6542C100.119 18.6004 103.3 19.0302 105.995 20.5344C106.588 20.8567 106.75 21.3939 106.803 21.8774V25.5841C106.803 26.1213 106.264 26.7123 105.671 26.3899C100.874 23.8651 94.4588 23.5965 89.176 26.4437C88.6369 26.7123 88.0439 26.1751 88.0439 25.6378V22.0923C88.0439 21.5551 88.0439 20.5881 88.6369 19.7286L98.0167 6.35214H89.8767C89.3916 6.35214 88.9603 5.97609 88.9603 5.49261ZM31.9808 27.142H27.237C26.8058 27.0883 26.4284 26.766 26.3745 26.3362V2.05449C26.3745 1.571 26.8058 1.19496 27.2909 1.19496H31.7113C32.1964 1.19496 32.5199 1.571 32.5738 2.00077V5.17028H32.6816C33.8136 2.1082 36.0238 0.65775 38.9348 0.65775C41.8997 0.65775 43.7864 2.1082 45.0802 5.17028C46.2122 2.1082 48.8536 0.65775 51.6568 0.65775C53.6514 0.65775 55.8076 1.46356 57.1553 3.34378C58.6647 5.38517 58.3412 8.33981 58.3412 10.9721V26.3362C58.3412 26.8197 57.91 27.1957 57.4248 27.1957H52.7349C52.2498 27.142 51.8724 26.766 51.8724 26.3362V13.4433C51.8724 12.4226 51.9803 9.84397 51.7646 8.877C51.3873 7.26538 50.363 6.7819 48.9615 6.7819C47.8294 6.7819 46.5896 7.534 46.1044 8.76957C45.6192 10.0051 45.6731 12.0465 45.6731 13.4433V26.3362C45.6731 26.8197 45.2419 27.1957 44.7567 27.1957H40.0129C39.5278 27.142 39.1504 26.766 39.1504 26.3362V13.4433C39.1504 10.7572 39.5817 6.72818 36.2394 6.72818C32.8433 6.72818 32.9511 10.5961 32.9511 13.4433V26.3362C32.8972 26.766 32.5199 27.142 31.9808 27.142ZM119.849 0.65775C126.911 0.65775 130.738 6.67446 130.738 14.3565C130.738 21.77 126.533 27.6792 119.849 27.6792C112.949 27.6792 109.175 21.6625 109.175 14.1416C109.121 6.56702 112.949 0.65775 119.849 0.65775ZM119.849 5.65376C116.345 5.65376 116.129 10.4349 116.129 13.3895C116.129 16.3442 116.075 22.6832 119.795 22.6832C123.461 22.6832 123.676 17.5798 123.676 14.464C123.676 12.4226 123.569 9.95143 122.976 8.01748C122.436 6.29842 121.358 5.65376 119.849 5.65376ZM139.848 27.142H135.105C134.619 27.0883 134.242 26.7123 134.242 26.2825V1.94704C134.296 1.51728 134.673 1.14123 135.158 1.14123H139.579C140.01 1.14123 140.334 1.46357 140.441 1.83961V5.54633H140.549C141.897 2.21565 143.73 0.65775 147.018 0.65775C149.12 0.65775 151.223 1.40983 152.57 3.50494C153.81 5.43888 153.81 8.71584 153.81 11.0796V26.3899C153.756 26.8197 153.379 27.142 152.894 27.142H148.15C147.719 27.0883 147.341 26.766 147.288 26.3899V13.1747C147.288 10.4886 147.611 6.62074 144.323 6.62074C143.191 6.62074 142.112 7.37284 141.573 8.55469C140.926 10.0589 140.819 11.5093 140.819 13.1747V26.2825C140.765 26.766 140.334 27.142 139.848 27.142ZM76.5079 15.5384C76.5079 17.3649 76.5618 18.9228 75.6453 20.5881C74.8906 21.9311 73.7047 22.7369 72.357 22.7369C70.5242 22.7369 69.4461 21.3402 69.4461 19.2988C69.4461 15.2698 73.0578 14.5177 76.5079 14.5177V15.5384ZM81.3056 27.0883C80.9821 27.3569 80.5509 27.4106 80.1735 27.1957C78.6102 25.9064 78.2868 25.2618 77.4243 24.0262C74.8367 26.6585 72.95 27.4643 69.6078 27.4643C65.6187 27.4643 62.4921 24.9932 62.4921 20.1046C62.4921 16.2367 64.5944 13.6581 67.5593 12.3688C70.1468 11.2407 73.7586 11.0258 76.5079 10.7035V10.1126C76.5079 8.98445 76.6157 7.64144 75.9149 6.67447C75.3219 5.81494 74.2438 5.43888 73.2734 5.43888C71.4406 5.43888 69.8234 6.35214 69.4461 8.28609C69.3382 8.71585 69.0687 9.14561 68.6375 9.14561L64.0554 8.66212C63.678 8.55468 63.2468 8.28608 63.3546 7.69516C64.4327 2.10821 69.4461 0.442871 73.9742 0.442871C76.2922 0.442871 79.311 1.03379 81.1438 2.80658C83.4618 4.9554 83.2462 7.85632 83.2462 10.9721V18.3318C83.2462 20.5344 84.1626 21.5014 85.0251 22.7369C85.3486 23.1667 85.4025 23.7039 85.0251 23.9725C84.0009 24.7783 82.2759 26.2825 81.3056 27.0883ZM14.2455 15.5384C14.2455 17.3649 14.2994 18.9228 13.383 20.5881C12.6283 21.9311 11.4423 22.7369 10.0946 22.7369C8.2618 22.7369 7.18367 21.3402 7.18367 19.2988C7.18367 15.2698 10.7954 14.5177 14.2455 14.5177V15.5384ZM18.9893 27.0883C18.6658 27.3569 18.2346 27.4106 17.8572 27.1957C16.2939 25.9064 15.9705 25.2618 15.108 24.0262C12.5204 26.6585 10.6337 27.4643 7.29148 27.4643C3.30238 27.4643 0.175781 24.9932 0.175781 20.1046C0.175781 16.2367 2.27814 13.6581 5.24302 12.3688C7.83055 11.2407 11.4423 11.0258 14.1916 10.7035V10.1126C14.1916 8.98445 14.2994 7.64144 13.5986 6.67447C13.0056 5.81494 11.9275 5.43888 10.9571 5.43888C9.12431 5.43888 7.50711 6.35214 7.12976 8.28609C7.02194 8.71585 6.75241 9.14561 6.32116 9.14561L1.73908 8.66212C1.36173 8.55468 0.93048 8.28608 1.03829 7.69516C2.11643 2.10821 7.12976 0.442871 11.6579 0.442871C13.9759 0.442871 16.9947 1.03379 18.8275 2.80658C21.1455 4.9554 20.9299 7.85632 20.9299 10.9721V18.3318C20.9299 20.5344 21.8463 21.5014 22.7088 22.7369C23.0323 23.1667 23.0862 23.7039 22.7088 23.9725C21.6846 24.7783 19.9596 26.2825 18.9893 27.0883Z" fill="#CFCFDE"/>
</svg>
