<svg width="194" height="40" viewBox="0 0 194 40" fill="none" xmlns="http://www.w3.org/2000/svg">
<path d="M100.101 19.3434C98.5048 19.3434 97.3538 19.8689 96.1867 20.4042V32.5178C97.3046 32.6247 97.9454 32.6247 99.006 32.6247C102.838 32.6247 103.364 30.8632 103.364 28.4039V22.6184C103.364 20.8021 102.763 19.3434 100.101 19.3434ZM74.6495 18.6823C71.9904 18.6823 71.3836 20.1473 71.3836 21.9618V22.9812H77.9118V21.9618C77.9118 20.1473 77.3049 18.6823 74.6495 18.6823ZM25.344 31.2908C25.344 32.7262 26.0188 33.4717 27.5081 33.4717C29.1056 33.4717 30.0517 32.9489 31.2178 32.4118V29.5383H27.7247C26.0707 29.5383 25.344 29.8473 25.344 31.2908ZM124.86 19.3434C122.196 19.3434 121.274 20.8021 121.274 22.6184V29.2464C121.274 31.0671 122.196 32.5304 124.86 32.5304C127.516 32.5304 128.446 31.0671 128.446 29.2464V22.6184C128.445 20.8021 127.515 19.3434 124.86 19.3434ZM12.2913 38.7228H4.46184V19.7036H0.549805V13.1501H4.46274V9.21402C4.46274 3.86684 6.6707 0.687988 12.9464 0.687988H18.1714V7.2433H14.9056C12.4622 7.2433 12.3011 8.15949 12.3011 9.86883L12.2913 13.1492H18.2072L17.5154 19.7027H12.2913V38.7228ZM39.0491 38.7722H32.5237L32.2417 37.1158C29.2623 38.7722 26.6032 39.0408 24.849 39.0408C20.0635 39.0408 17.5163 35.8323 17.5163 31.395C17.5163 26.1601 20.4886 24.2918 25.8058 24.2918H31.2178V23.16C31.2178 20.4877 30.9127 19.7036 26.818 19.7036H20.1234L20.7777 13.1501H28.0952C37.0792 13.1501 39.0491 15.9984 39.0491 23.213V38.7722ZM61.2388 20.1841C57.1782 19.4853 56.012 19.3317 54.0582 19.3317C50.5489 19.3317 49.4884 20.1087 49.4884 23.0998V28.7578C49.4884 31.7489 50.5489 32.5295 54.0582 32.5295C56.012 32.5295 57.1782 32.3732 61.2388 31.6717V38.0644C57.6821 38.8647 55.3649 39.0749 53.4067 39.0749C45.0008 39.0749 41.6598 34.6385 41.6598 28.2296V23.6388C41.6598 17.2245 45.0008 12.78 53.4067 12.78C55.3649 12.78 57.6821 12.9911 61.2388 13.795V20.1841ZM85.7403 28.2296H71.3827V28.7578C71.3827 31.7489 72.4442 32.5295 75.9526 32.5295C79.1066 32.5295 81.0317 32.3732 85.0852 31.6717V38.0644C81.1758 38.8647 79.1388 39.0749 75.3037 39.0749C66.897 39.0749 63.5542 34.6385 63.5542 28.2296V22.9803C63.5542 17.3727 66.0342 12.78 74.6486 12.78C83.263 12.78 85.7403 17.3197 85.7403 22.9803V28.2296ZM111.191 28.3509C111.191 34.5451 109.427 39.0632 98.7411 39.0632C94.8818 39.0632 92.6184 38.7228 88.3591 38.0653V2.65692L96.1858 1.34639V13.7321C97.8774 13.1016 100.067 12.7809 102.059 12.7809C109.886 12.7809 111.191 16.3029 111.191 21.9626V28.3509H111.191ZM136.281 28.4856C136.281 33.8292 134.083 39.012 124.886 39.012C115.684 39.012 113.445 33.8292 113.445 28.4856V23.3262C113.445 17.9799 115.684 12.7962 124.886 12.7962C134.083 12.7962 136.281 17.9799 136.281 23.3262V28.4856ZM161.353 28.4856C161.353 33.8292 159.153 39.012 149.957 39.012C140.756 39.012 138.517 33.8292 138.517 28.4856V23.3262C138.517 17.9799 140.756 12.7962 149.957 12.7962C159.153 12.7962 161.353 17.9799 161.353 23.3262V28.4856ZM187.084 38.7228H178.6L171.425 26.7017V38.7228H163.595V2.65602L171.425 1.3455V24.5639L178.6 13.1501H187.084L179.251 25.6059L187.084 38.7228ZM149.931 19.3434C147.272 19.3434 146.349 20.8021 146.349 22.6184V29.2464C146.349 31.0671 147.272 32.5304 149.931 32.5304C152.586 32.5304 153.526 31.0671 153.526 29.2464V22.6184C153.526 20.8021 152.586 19.3434 149.931 19.3434ZM191.553 34.237C192.871 34.237 193.921 35.3158 193.921 36.6631C193.921 38.0311 192.87 39.0982 191.543 39.0982C190.222 39.0982 189.15 38.0311 189.15 36.6631C189.15 35.3158 190.222 34.237 191.543 34.237H191.553ZM191.543 34.6143C190.48 34.6143 189.611 35.5314 189.611 36.6631C189.611 37.8156 190.481 38.721 191.553 38.721C192.625 38.7318 193.481 37.8156 193.481 36.6739C193.481 35.5323 192.625 34.6143 191.553 34.6143H191.543ZM191.092 38.0752H190.663V35.3679C190.888 35.3364 191.103 35.305 191.425 35.305C191.834 35.305 192.1 35.3912 192.264 35.5089C192.422 35.6284 192.507 35.8107 192.507 36.0685C192.507 36.426 192.273 36.6407 191.984 36.7278V36.7485C192.219 36.7925 192.379 37.0063 192.434 37.4042C192.497 37.8255 192.562 37.9862 192.604 38.0743H192.154C192.09 37.9862 192.025 37.7392 191.971 37.3826C191.909 37.0386 191.735 36.9093 191.391 36.9093H191.093V38.0752H191.092ZM191.092 36.5769H191.404C191.757 36.5769 192.056 36.4467 192.056 36.1116C192.056 35.8745 191.886 35.6382 191.404 35.6382C191.263 35.6382 191.166 35.649 191.092 35.6589V36.5769Z" fill="#CFCFDE"/>
</svg>
