<svg width="132" height="52" viewBox="0 0 132 52" fill="none" xmlns="http://www.w3.org/2000/svg">
<path d="M104.461 16.833V0.931152H107.706V14.6007C106.807 15.0522 105.584 15.905 104.461 16.833ZM98.8204 21.6236C99.8188 20.4197 100.842 19.2158 102.065 18.1874V0.931152H98.8204V21.6236ZM61.2324 34.2648C61.2324 38.5036 62.9046 42.5418 65.9746 45.6268C69.0195 48.6868 73.0379 50.3924 77.2809 50.3924C79.078 50.3924 80.9249 50.0162 82.2228 49.364V46.1034C80.7003 46.7555 78.8533 47.1318 77.2809 47.1318C70.3424 47.1318 64.502 41.2626 64.502 34.2899V31.3553C64.502 24.3826 70.3673 18.5135 77.2809 18.5135C80.7252 18.5135 83.9449 19.8428 86.341 22.2506C88.737 24.6585 90.0599 27.894 90.0599 31.3553V50.4175H93.3045V30.7283C93.1048 26.5647 91.3328 22.677 88.3377 19.7676C85.3177 16.8581 81.3991 15.2528 77.2809 15.2528C73.0629 15.2528 69.0445 16.9333 65.9746 20.0184C62.9296 23.0783 61.2324 27.1165 61.2324 31.3804V34.2648ZM109.802 26.4393C111.275 24.9595 113.172 24.1318 115.044 24.1318C119.062 24.1318 122.182 27.2921 122.182 31.3052V34.2397C122.182 38.2779 119.037 41.4131 115.044 41.4131C113.097 41.4131 111.225 40.3346 109.752 38.4033C108.455 36.6977 107.606 34.3651 107.481 32.2834L104.86 35.544C105.385 38.002 106.657 40.3848 108.479 42.0402C110.351 43.7457 112.698 44.6988 115.044 44.6988C120.784 44.6988 125.452 40.0085 125.452 34.2648V31.3302C125.452 28.5963 124.353 25.9878 122.357 24.0064C120.36 21.9998 117.764 20.8962 115.044 20.8962C113.322 20.8962 110.601 21.5233 107.356 24.4578C106.483 25.3357 104.436 27.3924 103.188 28.8472C101.092 31.1547 98.0716 34.5909 95.4759 38.0772V43.1688C98.3462 39.4567 99.9935 37.375 102.714 34.2397C105.11 31.3804 108.105 27.9442 109.802 26.4393ZM33.1287 20.2943V16.4317C30.1836 14.8515 26.9888 14.1492 22.7458 14.1492C18.403 14.1492 14.2848 15.7545 11.1649 18.6389C8.02009 21.5484 6.29793 25.3608 6.29793 29.424V30.4775C6.29793 38.9049 13.0119 45.7523 21.2982 45.7523C28.0121 45.7523 30.7826 43.5451 31.4814 42.8428V33.0358H20.4995V36.2964H28.4364V41.2125H28.4115C27.3882 41.6138 25.2667 42.4665 21.2982 42.4665C18.1534 42.4665 15.1833 41.2375 12.9869 38.9802C10.7656 36.7228 9.56754 33.713 9.56754 30.4524V29.3989C9.56754 22.9028 15.6076 17.3848 22.7708 17.3848C27.6877 17.4099 30.6328 18.2376 33.1287 20.2943ZM56.7897 24.1318C58.0127 24.1318 59.061 24.3324 59.9096 24.7337C60.3089 23.7305 60.7332 22.8777 61.3322 21.8744C60.4587 21.2474 58.3371 20.8461 56.7897 20.8461C50.8744 20.8461 46.4068 25.3357 46.4068 31.3052V50.3673H49.6515V31.3052C49.6515 27.0914 52.5717 24.1318 56.7897 24.1318ZM0.657227 29.424V30.4775C0.657227 36.1459 2.80369 41.4131 6.67231 45.351C10.5409 49.2637 15.7324 51.4207 21.2732 51.4207C25.7409 51.4207 29.6844 50.4175 33.0289 48.4109C35.7743 46.7555 36.9973 45.1001 37.0972 44.9496V27.3924H20.4995V30.653H33.8525V43.9715C32.2801 45.5516 28.5612 48.1852 21.2982 48.1852C16.556 48.1852 12.1633 46.3542 8.91861 43.0434C5.69892 39.7577 3.92684 35.2932 3.92684 30.5025V29.4491C3.92684 24.9093 5.9485 20.3946 9.49266 17.0587C13.1117 13.6476 17.8289 11.7665 22.7708 11.7665C27.3882 11.7665 30.5829 12.4688 33.1537 14.0489V10.3619C30.4581 9.20813 27.2384 8.7065 22.7458 8.7065C10.7656 8.7065 0.657227 18.1874 0.657227 29.424ZM87.6388 50.3673V31.3052C87.6388 25.436 83.0714 20.8461 77.231 20.8461C74.5105 20.8461 71.9148 21.9497 69.9181 23.9562C67.9213 25.9627 66.8232 28.5713 66.8232 31.2801V34.2146C66.8232 39.8831 71.5903 44.6487 77.206 44.6487C78.7535 44.6487 80.85 44.2724 82.1479 43.1939V39.8079C80.875 40.8362 79.053 41.4382 77.206 41.4382C73.2126 41.4382 70.0678 38.2779 70.0678 34.2648V31.3302C70.0678 27.2921 73.2126 24.1569 77.206 24.1569C81.2244 24.1569 84.3443 27.3172 84.3443 31.3302V50.3924H87.6388V50.3673ZM56.7897 18.4633C58.9861 18.4633 60.9079 18.9399 62.6301 19.918C63.4288 18.8897 64.2524 18.0871 64.8764 17.46C63.0544 16.0555 59.9595 15.2027 56.8147 15.2027C52.2971 15.2027 48.2038 16.833 45.2837 19.8177C42.3884 22.7523 40.7911 26.8406 40.7911 31.3302V50.3924H44.0357V31.3302C44.0108 23.7556 49.2521 18.4633 56.7897 18.4633ZM126.35 19.9682C123.305 16.9082 119.287 15.2027 115.044 15.2027C111.949 15.2027 108.854 16.3564 107.132 17.5102C103.588 19.8679 100.692 22.4513 95.451 29.2485V34.1394C99.8936 28.3204 104.087 23.7556 107.281 21.2223C109.378 19.5418 112.348 18.4884 115.044 18.4884C121.982 18.4884 127.823 24.3826 127.823 31.3302V34.2648C127.823 37.701 126.475 40.9366 124.029 43.3695C121.608 45.7773 118.413 47.1067 115.044 47.1067C109.353 47.1067 104.336 43.1688 102.989 37.8264L100.692 40.6105C102.365 46.2288 108.405 50.3673 115.044 50.3673C119.287 50.3673 123.28 48.6617 126.35 45.6018C129.395 42.5167 131.092 38.5036 131.092 34.2397V31.3052C131.092 27.0663 129.395 23.0282 126.35 19.9682Z" fill="#CFCFDE"/>
</svg>
