<svg width="152" height="41" viewBox="0 0 152 41" fill="none" xmlns="http://www.w3.org/2000/svg">
<g clip-path="url(#clip0_213_3401)">
<path d="M143.281 19.521L151.376 40.8139C148.991 40.4754 146.606 40.0514 144.178 39.6694L139.617 27.9042L134.931 38.6982C132.631 38.3162 130.372 38.1889 128.072 37.8923L136.295 19.2679L128.837 0.178711H135.74L139.914 10.8441L144.389 0.178711H151.375L143.281 19.521ZM123.386 0.178711H117.123V37.089C119.168 37.2164 121.297 37.3003 123.386 37.5536V0.178711ZM111.711 36.6652C106.003 36.2845 100.293 35.9473 94.4563 35.8186V0.178874H100.847V29.8085C104.511 29.8926 108.175 30.1879 111.711 30.3572V36.6652ZM87.638 14.6137V20.9622H78.9042V35.3959H72.5999V0.178711H90.4943V6.52727H78.9055V14.6138H87.6393L87.638 14.6137ZM61.8617 6.52727V35.7345C59.7308 35.7345 57.559 35.7345 55.4702 35.8186V6.52727H48.866V0.178711H68.5067V6.52727H61.8617ZM41.9646 21.2996C39.1532 21.2996 35.8292 21.2996 33.4433 21.4283V30.8664C37.1926 30.6118 40.9419 30.3165 44.7334 30.1892V36.2845L27.0531 37.6823V0.178711H44.7322V6.52727H33.4431V15.0782C35.915 15.0782 39.7066 14.951 41.9643 14.951V21.3009L41.9646 21.2996ZM6.55714 17.7439V39.924C4.25847 40.1786 2.21197 40.4753 0.0400391 40.8139V0.178711H6.13313L14.4404 23.2489V0.178711H20.832V38.1889C18.5741 38.5709 16.2728 38.6982 13.8446 39.0355L6.55714 17.7439Z" fill="#CFCFDE"/>
</g>
<defs>
<clipPath id="clip0_213_3401">
<rect width="151.336" height="40.7149" fill="white" transform="translate(0.0400391 0.138184)"/>
</clipPath>
</defs>
</svg>
