<svg width="35" height="35" viewBox="0 0 35 35" fill="none" xmlns="http://www.w3.org/2000/svg">
<path d="M2.91665 13.1249H7.29165V30.6249H2.91665C2.52987 30.6249 2.15894 30.4713 1.88545 30.1978C1.61196 29.9243 1.45831 29.5534 1.45831 29.1666V14.5833C1.45831 14.1965 1.61196 13.8255 1.88545 13.5521C2.15894 13.2786 2.52987 13.1249 2.91665 13.1249ZM10.6356 11.2393L19.9689 1.90596C20.093 1.78156 20.2578 1.70612 20.433 1.69353C20.6082 1.68093 20.7821 1.73203 20.9227 1.83742L22.1666 2.77075C22.5121 3.03011 22.7731 3.38595 22.9166 3.79342C23.0601 4.20088 23.0798 4.64171 22.9731 5.06033L21.2916 11.6666H30.625C31.3985 11.6666 32.1404 11.9739 32.6874 12.5209C33.2344 13.0678 33.5416 13.8097 33.5416 14.5833V17.6516C33.542 18.0327 33.4677 18.4103 33.3229 18.7628L28.8094 29.7222C28.6993 29.9894 28.5122 30.2179 28.2721 30.3786C28.0319 30.5393 27.7494 30.625 27.4604 30.6249H11.6666C11.2799 30.6249 10.9089 30.4713 10.6355 30.1978C10.362 29.9243 10.2083 29.5534 10.2083 29.1666V12.2703C10.2084 11.8836 10.3621 11.5127 10.6356 11.2393Z" fill="white"/>
</svg>
